<svg width="28" height="27" viewBox="0 0 28 27" fill="none" xmlns="http://www.w3.org/2000/svg">
<path fill-rule="evenodd" clip-rule="evenodd" d="M8.35821 0.165684C6.16058 0.264841 4.25579 0.802135 2.71771 2.33372C1.17426 3.87335 0.643644 5.78568 0.54424 7.96046C0.482448 9.31785 0.121121 19.5726 1.16889 22.262C1.87547 24.0763 3.26709 25.4713 5.098 26.1801C5.95234 26.5124 6.9276 26.7374 8.35821 26.803C20.3203 27.3444 24.7545 27.0497 26.6243 22.262C26.9561 21.4097 27.1845 20.4353 27.2476 19.0083C27.7944 7.01553 27.159 4.41603 25.0742 2.33372C23.4206 0.684213 21.4755 -0.438642 8.35821 0.165684ZM8.46833 24.3911C7.15862 24.3321 6.44803 24.1139 5.97384 23.9303C4.78099 23.4667 3.88502 22.5744 3.42427 21.3886C2.62635 19.3451 2.89099 9.63967 2.96219 8.06922C3.03204 6.53093 3.34368 5.12504 4.42906 4.03967C5.77236 2.69969 7.50788 2.04298 19.3249 2.5763C20.867 2.64597 22.2761 2.95697 23.3642 4.03967C24.7075 5.37963 25.3737 7.12852 24.8311 18.9002C24.7719 20.2066 24.553 20.9155 24.369 21.3886C23.1533 24.504 20.3565 24.9365 8.46833 24.3911ZM19.4552 6.33097C19.4552 7.21804 20.1765 7.93936 21.0672 7.93936C21.9578 7.93936 22.6804 7.21804 22.6804 6.33097C22.6804 5.44391 21.9578 4.72324 21.0672 4.72324C20.1765 4.72324 19.4552 5.44391 19.4552 6.33097ZM6.99878 13.4837C6.99878 17.2839 10.087 20.3649 13.8966 20.3649C17.7062 20.3649 20.7945 17.2839 20.7945 13.4837C20.7945 9.68355 17.7062 6.60453 13.8966 6.60453C10.087 6.60453 6.99878 9.68355 6.99878 13.4837ZM9.4194 13.4837C9.4194 11.0182 11.4236 9.01778 13.8966 9.01778C16.3696 9.01778 18.3738 11.0182 18.3738 13.4837C18.3738 15.9506 16.3696 17.9516 13.8966 17.9516C11.4236 17.9516 9.4194 15.9506 9.4194 13.4837Z" fill="white"/>
</svg>
