<svg width="60" height="49" viewBox="0 0 60 49" fill="none" xmlns="http://www.w3.org/2000/svg">
<path d="M59.0184 23.8515C59.0184 23.6471 59.0184 23.6471 59.0184 23.8515C58.8139 23.6471 58.8139 23.4426 58.8139 23.4426L50.6356 11.1751C50.2267 10.5617 49.6133 10.1528 48.9999 10.1528H38.777C37.5502 10.1528 36.7324 10.9706 36.7324 12.1974V29.3719C35.0967 29.9853 33.6655 31.2121 32.6432 32.6433H28.554V27.5318C28.7585 27.3273 28.7585 27.1229 28.9629 26.9184L34.4833 13.2197C34.6878 12.6063 34.6878 11.7885 34.2789 11.1751C31.6209 7.49483 27.3273 4.22348 22.2158 2.17889C20.3757 1.56552 18.5355 1.1566 16.8999 0.747681L6.06354 26.9184V30.5987C3.61004 32.4388 1.97437 35.3012 1.97437 38.777C1.97437 44.5019 6.47246 49 12.1973 49C17.9222 49 22.4203 44.5019 22.4203 38.777C22.4203 38.1637 22.4203 37.3458 22.2158 36.7325H30.8031C30.5986 37.3458 30.5986 38.1637 30.5986 38.777C30.5986 44.5019 35.0967 49 40.8216 49C46.5464 49 51.0445 44.5019 51.0445 38.777H57.1783C58.405 38.777 59.2229 37.9592 59.2229 36.7325V24.4649C59.2229 24.2605 59.2229 24.056 59.0184 23.8515ZM12.1973 44.9108C8.72151 44.9108 6.06354 42.2528 6.06354 38.777C6.06354 35.3012 8.72151 32.6433 12.1973 32.6433C15.6731 32.6433 18.3311 35.3012 18.3311 38.777C18.3311 42.2528 15.6731 44.9108 12.1973 44.9108ZM40.8216 14.242H47.9776L53.498 22.4203H51.6579C49.6133 22.4203 47.7732 21.1936 46.9553 19.5579C46.342 18.7401 45.7286 18.3311 44.9107 18.3311H40.8216V14.242ZM40.8216 44.9108C37.3458 44.9108 34.6878 42.2528 34.6878 38.777C34.6878 35.3012 37.3458 32.6433 40.8216 32.6433C44.2974 32.6433 46.9553 35.3012 46.9553 38.777C46.9553 42.2528 44.2974 44.9108 40.8216 44.9108Z" fill="white"/>
<path d="M4.01902 21.1936L12.6063 0.1343C10.7662 -0.0701592 8.92603 -0.0701593 7.29036 0.338759C6.47253 0.338759 5.85915 0.952136 5.65469 1.56551L0.1343 15.2643C-0.0701592 15.8776 -0.0701592 16.6955 0.338759 17.3089C1.36105 18.7401 2.58781 19.9668 4.01902 21.1936Z" fill="white"/>
</svg>
