<svg width="50" height="53" viewBox="0 0 50 53" fill="none" xmlns="http://www.w3.org/2000/svg">
<path d="M27.6944 1.00499C26.9417 0.356139 25.9869 0 25 0C24.0131 0 23.0583 0.356139 22.3056 1.00499L1.47222 18.9759C1.0109 19.3735 0.640255 19.8685 0.386022 20.4265C0.131788 20.9844 6.4143e-05 21.592 0 22.2069V48.7636C0 49.8871 0.438987 50.9647 1.22039 51.7592C2.00179 52.5537 3.0616 53 4.16667 53H17.3611C17.9136 53 18.4435 52.7768 18.8342 52.3796C19.2249 51.9824 19.4444 51.4436 19.4444 50.8818V33.23H30.5556V50.8818C30.5556 52.051 31.4889 53 32.6389 53H45.8333C46.9384 53 47.9982 52.5537 48.7796 51.7592C49.561 50.9647 50 49.8871 50 48.7636V22.2069C49.9999 21.592 49.8682 20.9844 49.614 20.4265C49.3597 19.8685 48.9891 19.3735 48.5278 18.9759L27.6944 1.00499Z" fill="white"/>
</svg>
