<svg width="43" height="37" viewBox="0 0 43 37" fill="none" xmlns="http://www.w3.org/2000/svg">
<path d="M39.1921 0H3.8079C2.75341 0 1.85513 0.373142 1.11308 1.11943C0.371026 1.86571 0 2.76911 0 3.82962V33.1704C0 34.2309 0.371026 35.1343 1.11308 35.8806C1.85513 36.6269 2.75341 37 3.8079 37H39.1921C40.2466 37 41.1449 36.6269 41.8869 35.8806C42.629 35.1343 43 34.2309 43 33.1704V3.82962C43 2.76911 42.629 1.86571 41.8869 1.11943C41.1449 0.373142 40.2466 0 39.1921 0ZM38.3134 30.5191C38.3134 31.069 38.1181 31.5403 37.7275 31.9331C37.337 32.3259 36.8683 32.5223 36.3215 32.5223H35.3256V21.328C35.3256 21.0531 35.228 20.8174 35.0327 20.621C34.8374 20.4246 34.6226 20.3264 34.3883 20.3264H33.2752C33.0018 20.3264 32.7675 20.4246 32.5722 20.621C32.3769 20.8174 32.2793 21.0531 32.2793 21.328V32.5223H23.0232V21.328C23.0232 21.0531 22.9255 20.8174 22.7302 20.621C22.535 20.4246 22.3006 20.3264 22.0272 20.3264H20.9728C20.6994 20.3264 20.465 20.4246 20.2698 20.621C20.0745 20.8174 19.9768 21.0531 19.9768 21.328V32.5223H10.7207V21.1513C10.7207 20.8763 10.6231 20.6505 10.4278 20.4737C10.2325 20.297 9.99818 20.2086 9.7248 20.2086H8.6703C8.39691 20.2086 8.16258 20.297 7.9673 20.4737C7.77203 20.6505 7.67439 20.8763 7.67439 21.1513V32.5223H6.56131C6.01453 32.5223 5.54587 32.3259 5.15531 31.9331C4.76476 31.5403 4.56948 31.069 4.56948 30.5191V6.8344C4.56948 6.2845 4.76476 5.81316 5.15531 5.42038C5.54587 5.0276 6.01453 4.83121 6.56131 4.83121H7.67439V12.078C7.67439 12.353 7.77203 12.5886 7.9673 12.785C8.16258 12.9814 8.37738 13.0796 8.61172 13.0796H9.7248C9.99818 13.0796 10.2325 12.9814 10.4278 12.785C10.6231 12.5886 10.7207 12.353 10.7207 12.078V4.83121H19.9768V12.078C19.9768 12.353 20.0745 12.5886 20.2698 12.785C20.465 12.9814 20.6798 13.0796 20.9142 13.0796H22.0272C22.3006 13.0796 22.535 12.9814 22.7302 12.785C22.9255 12.5886 23.0232 12.353 23.0232 12.078V4.83121H32.2793V12.078C32.2793 12.353 32.3769 12.5886 32.5722 12.785C32.7675 12.9814 32.9823 13.0796 33.2166 13.0796H34.3297C34.6031 13.0796 34.8374 12.9814 35.0327 12.785C35.228 12.5886 35.3256 12.353 35.3256 12.078V4.83121H36.3215C36.8683 4.83121 37.337 5.0276 37.7275 5.42038C38.1181 5.81316 38.3134 6.2845 38.3134 6.8344V30.5191ZM14.8215 9.42675H15.876C16.1494 9.42675 16.3837 9.52495 16.579 9.72134C16.7743 9.91773 16.8719 10.1534 16.8719 10.4283V22.9188C16.8719 23.1937 16.7743 23.4294 16.579 23.6258C16.3837 23.8222 16.1494 23.9204 15.876 23.9204H14.8215C14.5481 23.9204 14.3138 23.8222 14.1185 23.6258C13.9233 23.4294 13.8256 23.1937 13.8256 22.9188V10.4283C13.8256 10.1534 13.9233 9.91773 14.1185 9.72134C14.3138 9.52495 14.5481 9.42675 14.8215 9.42675ZM27.124 9.42675H28.1785C28.4519 9.42675 28.6862 9.52495 28.8815 9.72134C29.0767 9.91773 29.1744 10.1534 29.1744 10.4283V22.9188C29.1744 23.1937 29.0767 23.4294 28.8815 23.6258C28.6862 23.8222 28.4519 23.9204 28.1785 23.9204H27.124C26.8506 23.9204 26.6163 23.8222 26.421 23.6258C26.2257 23.4294 26.1281 23.1937 26.1281 22.9188V10.4283C26.1281 10.1534 26.2257 9.91773 26.421 9.72134C26.6163 9.52495 26.8506 9.42675 27.124 9.42675Z" fill="white"/>
</svg>
