<svg width="46" height="50" viewBox="0 0 46 50" fill="none" xmlns="http://www.w3.org/2000/svg">
<path d="M17.0594 30.6524L18.1989 29.9945C18.6633 29.7264 18.8225 29.1325 18.5543 28.6679L16.3953 24.9283C16.2154 24.6168 15.889 24.4425 15.5534 24.4425C15.3886 24.4425 15.2217 24.4844 15.0688 24.5729L13.9293 25.2307C13.7728 25.321 13.6068 25.3622 13.4452 25.3622C12.9379 25.3622 12.4727 24.9566 12.4727 24.3897V23.074C12.4727 22.5377 12.0379 22.1028 11.5014 22.1028H7.18316C6.64688 22.1028 6.21195 22.5375 6.21195 23.074V24.3897C6.21195 24.9566 5.74655 25.3622 5.23941 25.3622C5.07777 25.3622 4.91181 25.321 4.7553 25.2307L3.61582 24.5729C3.46295 24.4846 3.29583 24.4427 3.1312 24.4425C2.79549 24.4425 2.46921 24.6168 2.28934 24.9283L0.130284 28.6679C-0.137859 29.1325 0.0213044 29.7264 0.485711 29.9945L1.6252 30.6524C2.27261 31.0262 2.27261 31.9606 1.6252 32.3345L0.485711 32.9923C0.0211387 33.2605 -0.137859 33.8544 0.130284 34.319L2.28934 38.0585C2.46921 38.3701 2.79565 38.5443 3.1312 38.5443C3.296 38.5443 3.46295 38.5022 3.61582 38.414L4.7553 37.7561C4.91181 37.6659 5.07777 37.6246 5.23941 37.6246C5.74672 37.6246 6.21195 38.0302 6.21195 38.5972V39.9129C6.21195 40.4491 6.64671 40.8841 7.18316 40.8841H11.5013C12.0376 40.8841 12.4725 40.4493 12.4725 39.9129V38.5972C12.4725 38.0302 12.9379 37.6246 13.445 37.6246C13.6067 37.6246 13.7726 37.6659 13.9291 37.7561L15.0686 38.414C15.2215 38.5022 15.3886 38.5443 15.5532 38.5443C15.889 38.5443 16.2152 38.3701 16.3951 38.0585L18.5542 34.319C18.8223 33.8544 18.6631 33.2605 18.1987 32.9923L17.0592 32.3345C16.412 31.9606 16.412 31.026 17.0594 30.6524ZM9.34239 34.3746C7.75108 34.3746 6.46121 33.0846 6.46121 31.4934C6.46121 29.9021 7.75125 28.6123 9.34239 28.6123C10.9335 28.6123 12.2236 29.9023 12.2236 31.4934C12.2236 33.0846 10.9335 34.3746 9.34239 34.3746Z" fill="white"/>
<path d="M16.3103 3.91843C15.7892 3.39771 14.945 3.39771 14.424 3.91843C13.9031 4.43948 13.9031 5.28383 14.424 5.80471L16.8073 8.18785C8.04767 8.62162 0.957027 15.5021 0.189697 24.1714L0.386788 23.8299C0.950899 22.8528 2.0026 22.2457 3.13116 22.2459C3.15501 22.2459 3.17869 22.2481 3.20254 22.2487C4.7054 16.0013 10.1529 11.2761 16.753 10.8656L14.424 13.1945C13.9031 13.7153 13.9031 14.5599 14.424 15.0807C14.6845 15.3411 15.0257 15.4713 15.367 15.4713C15.7084 15.4713 16.0497 15.3411 16.3101 15.0807L20.9482 10.4426C21.1983 10.1924 21.3387 9.85319 21.3387 9.49959C21.3387 9.14582 21.1983 8.80662 20.9482 8.55653L16.3103 3.91843Z" fill="white"/>
<path d="M33.1638 10.7418C36.1253 10.7418 38.5346 8.33248 38.5346 5.37098C38.5346 2.40931 36.1253 0 33.1638 0C30.2023 0 27.793 2.40931 27.793 5.37081C27.793 8.33231 30.2023 10.7418 33.1638 10.7418Z" fill="white"/>
<path d="M43.6266 25.2203V17.8369C43.6266 15.7931 42.3132 13.9807 40.3709 13.3445L40.362 13.3415L37.5212 12.8712C37.2794 12.7968 37.021 12.9248 36.9341 13.1633L33.7107 22.0074C33.5247 22.5177 32.8031 22.5177 32.6173 22.0074L29.3939 13.1633C29.3237 12.9707 29.1419 12.85 28.9471 12.85C28.9009 12.85 25.966 13.3409 25.966 13.3409C24.0079 13.9934 22.6995 15.8087 22.6995 17.8614V25.2203C22.6995 26.3232 23.5935 27.2171 24.6962 27.2171H41.6296C42.7327 27.2171 43.6266 26.3231 43.6266 25.2203Z" fill="white"/>
<path d="M45.9999 26.9854C45.8884 28.5116 44.6363 29.4462 43.1098 29.5569C41.9402 36.2522 36.285 41.4221 29.3666 41.8522L31.6954 39.5234C32.2163 39.0023 32.2163 38.158 31.6954 37.6371C31.1743 37.1164 30.3302 37.1164 29.8091 37.6371L25.1712 42.2752C24.6503 42.7963 24.6503 43.6406 25.1712 44.1615L29.8091 48.7994C30.0696 49.0598 30.4108 49.19 30.7522 49.19C31.0935 49.19 31.4349 49.0598 31.6952 48.7994C32.2161 48.2785 32.2161 47.434 31.6952 46.9131L29.3121 44.53C38.5916 44.0706 45.9999 36.3769 45.9999 26.9854Z" fill="white"/>
<path d="M34.3345 12.7704C34.2108 12.6355 34.0297 12.5676 33.8466 12.5676H32.481C32.298 12.5676 32.117 12.6355 31.9931 12.7704C31.8015 12.9792 31.7736 13.2808 31.9096 13.5165L32.6395 14.6169L32.2978 17.4995L32.9708 19.2896C33.0363 19.4696 33.2909 19.4696 33.3567 19.2896L34.0296 17.4995L33.6879 14.6169L34.4178 13.5165C34.5539 13.2808 34.5261 12.9792 34.3345 12.7704Z" fill="white"/>
</svg>
