<svg width="47" height="47" viewBox="0 0 47 47" fill="none" xmlns="http://www.w3.org/2000/svg">
<path d="M46.6138 19.2385C46.4614 18.4055 45.6624 17.8535 44.8295 18.0062C43.9966 18.1586 43.4449 18.9574 43.5972 19.7905C44.8102 26.4199 42.7014 33.2107 37.9561 37.956C34.1015 41.8106 28.9676 43.9335 23.5002 43.9335C18.5486 43.9335 13.8705 42.1922 10.1686 39.0002L12.297 36.8718C13.1554 36.0134 12.7193 34.546 11.5386 34.2893L3.22639 32.4823C2.1362 32.2458 1.16563 33.2172 1.40237 34.3063L3.20931 42.6183C3.46708 43.8041 4.93694 44.2317 5.79176 43.3767L7.996 41.1725C12.2809 44.9405 17.7288 46.9999 23.5002 46.9999C29.7868 46.9999 35.6907 44.5581 40.1245 40.1243C45.5822 34.6665 48.0081 26.8589 46.6138 19.2385ZM5.60936 39.2224L4.90555 35.9853L8.14269 36.6891L5.60936 39.2224Z" fill="white"/>
<path d="M45.5981 12.6937L43.7911 4.38149C43.5342 3.19987 42.0663 2.76503 41.2086 3.62306L39.0044 5.8273C34.7194 2.05948 29.2714 0 23.5002 0C17.2136 0 11.3097 2.44181 6.87595 6.87563C1.41822 12.3332 -1.00771 20.1411 0.386604 27.7614C0.539079 28.5951 1.33854 29.146 2.17087 28.9937C3.00384 28.8413 3.55554 28.0425 3.40316 27.2094C2.19024 20.58 4.2991 13.7891 9.04438 9.04388C12.899 5.18931 18.0329 3.0664 23.5003 3.0664C28.4519 3.0664 33.13 4.80771 36.8319 7.99969L34.7035 10.1281C33.8451 10.9865 34.2812 12.4539 35.4619 12.7105L43.7741 14.5175C44.8681 14.7554 45.8339 13.7787 45.5981 12.6937ZM38.8577 10.3107L41.3911 7.77726L42.0949 11.0143L38.8577 10.3107Z" fill="white"/>
<path d="M36.676 19.1964L24.4097 9.99671C23.8646 9.58785 23.1149 9.58785 22.5698 9.99671L10.3035 19.1964C9.12941 20.077 9.75253 21.9563 11.2235 21.9563H12.7568V32.6892C12.7568 33.536 13.4432 34.2225 14.2901 34.2225H32.6895C33.5362 34.2225 34.2228 33.536 34.2228 32.6892V21.9563H35.7561C37.2236 21.9563 37.8527 20.079 36.676 19.1964ZM31.1561 31.1559H15.8234V21.9563H31.1562V31.1559H31.1561ZM15.8234 18.8897L23.4897 13.1399L31.1561 18.8897H15.8234Z" fill="white"/>
</svg>
