<svg width="38" height="42" viewBox="0 0 38 42" fill="none" xmlns="http://www.w3.org/2000/svg">
<path d="M36.7372 11.3807L33.922 10.8174C33.7795 10.6547 33.6044 10.5237 33.4097 10.4316C33.631 10.1841 33.8191 9.93388 33.9618 9.72673C34.3061 9.22737 34.5927 8.68933 34.7917 8.17049C34.8894 7.95165 34.9723 7.73164 35.0405 7.51601C35.307 7.2921 35.464 6.95761 35.464 6.60684V5.74745C35.464 5.50035 35.387 5.25959 35.2445 5.05926V3.84921C35.2445 1.72666 33.5176 0 31.395 0H30.1469C28.0248 0 26.2976 1.72666 26.2976 3.84921V5.05936C26.1556 5.25959 26.0778 5.50055 26.0778 5.74735V6.60674C26.0778 6.95751 26.2346 7.29142 26.5019 7.51572C26.5698 7.73105 26.653 7.95135 26.7509 8.17078C26.9493 8.68933 27.2361 9.22737 27.5807 9.72644C27.7237 9.93417 27.9118 10.1846 28.1342 10.4331C27.9399 10.5253 27.7661 10.656 27.6238 10.818L24.8677 11.3763C24.8521 11.3969 24.8368 11.4177 24.8207 11.4379C24.7705 11.5711 24.7168 11.7028 24.66 11.8322C24.5852 12.0237 24.5015 12.2166 24.4094 12.409L25.295 12.5861C26.8654 12.9001 28.0051 14.2907 28.0051 15.8928V26.0604C28.0051 26.3969 27.9564 26.7253 27.8599 27.0413V27.8338C27.8599 29.1693 27.0315 30.3145 25.8615 30.783V36.5406C25.8615 37.9032 26.9662 39.0079 28.3291 39.0079C29.6912 39.0079 30.7959 37.9033 30.7959 36.5406C30.7959 37.9032 31.9002 39.0079 33.2633 39.0079C34.6255 39.0079 35.7298 37.9033 35.7298 36.5406V26.0132C35.946 26.1543 36.2035 26.2368 36.4806 26.2368C37.2402 26.2368 37.8547 25.6213 37.8547 24.8624V23.7479C37.9481 23.5476 38 23.3244 38 23.0891V12.9213C37.9999 12.1724 37.4712 11.5274 36.7372 11.3807ZM30.0325 13.9568C30.0221 14.0575 29.9513 14.1418 29.8532 14.1689C29.8311 14.1753 29.8093 14.1779 29.7871 14.1779C29.7109 14.1779 29.6373 14.1427 29.5902 14.08L28.8967 13.1603C28.8647 13.1175 28.847 13.0653 28.847 13.0116L28.8478 11.5376C28.848 11.4511 28.8934 11.3709 28.9676 11.3259C29.0413 11.2813 29.1334 11.2793 29.2102 11.3193C29.4116 11.4262 29.6135 11.4979 29.809 11.5324C29.9266 11.5537 30.0123 11.6561 30.0123 11.7754V12.3905C30.0479 12.4047 30.0797 12.4262 30.1055 12.455C30.1524 12.5071 30.1751 12.5762 30.1679 12.6454L30.0325 13.9568ZM32.6444 13.1602L31.9524 14.079C31.9047 14.1419 31.8314 14.1777 31.7554 14.1777C31.7333 14.1777 31.7107 14.1745 31.6887 14.1687C31.5907 14.1416 31.5197 14.0572 31.5094 13.9562L31.3745 12.6451C31.3673 12.576 31.3896 12.5069 31.4366 12.4547C31.4623 12.4259 31.494 12.4044 31.5298 12.3902V11.7751C31.5298 11.6557 31.6157 11.5534 31.7336 11.5321C31.9283 11.4977 32.13 11.4261 32.3318 11.3192C32.4089 11.2791 32.5005 11.2813 32.5744 11.3259C32.6489 11.3706 32.6936 11.451 32.6936 11.5375L32.6939 13.0117C32.6939 13.0654 32.6766 13.1176 32.6444 13.1602ZM32.8955 8.9604C32.292 9.83567 31.727 10.2273 31.4337 10.2273H30.1085C29.8155 10.2273 29.2498 9.83557 28.6465 8.9604C28.1706 8.26977 27.8395 7.50588 27.7618 6.9162L27.7483 6.81398L27.5087 6.65857C27.4387 6.61288 27.3963 6.53532 27.3963 6.45143V6.0457C27.3963 5.90939 27.5071 5.7987 27.6433 5.7987H27.7438V5.35858C27.7438 5.26505 27.7967 5.17989 27.8803 5.13789C28.2199 4.96874 28.8943 4.68384 29.5923 4.68384C30.1487 4.68384 30.6104 4.86916 30.9643 5.23435C31.4048 5.69035 31.9135 5.92108 32.474 5.92108C32.7924 5.92108 33.1204 5.84625 33.4503 5.69805C33.5266 5.66385 33.6153 5.67057 33.6858 5.71627C33.7188 5.73742 33.745 5.76577 33.7643 5.79861H33.8989C34.0352 5.79861 34.146 5.90929 34.146 6.04561V6.45143C34.146 6.53522 34.1033 6.61278 34.0337 6.65848L33.7944 6.81398L33.7804 6.9159C33.7027 7.50568 33.3714 8.26977 32.8955 8.9604Z" fill="white"/>
<path d="M10.1396 27.8339V27.0398C10.0434 26.7239 9.99478 26.3961 9.99478 26.0606V15.8912C9.99478 14.2933 11.1315 12.9031 12.6974 12.5862L13.5439 12.4148C13.4508 12.2202 13.3661 12.0253 13.2907 11.832C13.2336 11.7021 13.18 11.5704 13.13 11.4378C13.1115 11.4145 13.0936 11.3907 13.0758 11.3668L10.3302 10.8175C10.1878 10.6548 10.0128 10.5238 9.81793 10.4317C10.0394 10.1842 10.2273 9.93398 10.3701 9.72683C10.7144 9.22747 11.001 8.68943 11.1999 8.17059C11.2977 7.95174 11.3804 7.73173 11.4487 7.51611C11.7152 7.2922 11.8724 6.9577 11.8724 6.60693V5.74755C11.8724 5.50045 11.7953 5.25969 11.6529 5.05936V3.84921C11.6529 1.72666 9.92589 0 7.80306 0H6.55519C4.43304 0 2.70609 1.72666 2.70609 3.84921V5.05936C2.56373 5.25959 2.48598 5.50055 2.48598 5.74735V6.60674C2.48598 6.95751 2.64305 7.29142 2.91022 7.51572C2.97803 7.73105 3.06114 7.95135 3.15916 8.17078C3.35745 8.68933 3.6443 9.22737 3.98873 9.72644C4.13196 9.93417 4.31992 10.1846 4.54227 10.4331C4.34808 10.5253 4.17406 10.656 4.03199 10.818L1.25887 11.3798C0.526641 11.5281 0 12.1718 0 12.9196V23.0892C0 23.3245 0.0521282 23.5478 0.14479 23.748V24.8625C0.14479 25.6214 0.759902 26.2369 1.51922 26.2369C1.79594 26.2369 2.05405 26.1543 2.26967 26.0133V36.5408C2.26967 37.9034 3.3743 39.0081 4.73714 39.0081C6.09929 39.0081 7.20392 37.9035 7.20392 36.5408C7.20392 37.9034 8.30816 39.0081 9.67158 39.0081C11.0336 39.0081 12.1379 37.9035 12.1379 36.5408V30.783C10.9682 30.3145 10.1396 29.1691 10.1396 27.8339ZM6.44071 13.9568C6.43028 14.0575 6.35954 14.1418 6.26143 14.1689C6.2394 14.1753 6.21748 14.1779 6.19536 14.1779C6.11897 14.1779 6.04551 14.1427 5.99854 14.08L5.30509 13.1603C5.27284 13.1175 5.2555 13.0653 5.2555 13.0116L5.25608 11.5376C5.25628 11.4511 5.30178 11.3709 5.37593 11.3259C5.44959 11.2813 5.54167 11.2793 5.61835 11.3193C5.81994 11.4262 6.02183 11.4979 6.21729 11.5324C6.3348 11.5537 6.42064 11.6561 6.42064 11.7754V12.3905C6.456 12.4047 6.48787 12.4262 6.51379 12.455C6.56055 12.5071 6.58326 12.5762 6.57614 12.6454L6.44071 13.9568ZM9.05267 13.1602L8.36058 14.079C8.31304 14.1419 8.23967 14.1777 8.16357 14.1777C8.14145 14.1777 8.11894 14.1745 8.09692 14.1687C7.9992 14.1416 7.92807 14.0572 7.91774 13.9562L7.78289 12.6451C7.77568 12.576 7.79809 12.5069 7.84476 12.4547C7.87048 12.4259 7.90225 12.4044 7.9382 12.3902V11.7751C7.9382 11.6557 8.02404 11.5534 8.14174 11.5321C8.33662 11.4977 8.53821 11.4261 8.74019 11.3192C8.81707 11.2791 8.90886 11.2813 8.98271 11.3259C9.05725 11.3706 9.10197 11.451 9.10197 11.5375L9.10217 13.0117C9.10207 13.0654 9.08492 13.1176 9.05267 13.1602ZM9.30357 8.9604C8.70015 9.83567 8.13531 10.2273 7.84203 10.2273H6.51661C6.22372 10.2273 5.6581 9.83557 5.05488 8.9604C4.57881 8.26977 4.24762 7.50588 4.16996 6.9162L4.15632 6.81398L3.91692 6.65857C3.84696 6.61288 3.80458 6.53532 3.80458 6.45143V6.0457C3.80458 5.90939 3.91517 5.7987 4.05148 5.7987H4.15194V5.35858C4.15194 5.26505 4.20514 5.17989 4.28864 5.13789C4.6285 4.96874 5.30256 4.68384 6.00059 4.68384C6.55695 4.68384 7.01879 4.86916 7.37268 5.23435C7.81329 5.69035 8.3219 5.92108 8.88245 5.92108C9.20087 5.92108 9.52874 5.84625 9.85866 5.69805C9.93505 5.66385 10.0235 5.67057 10.0941 5.71627C10.127 5.73742 10.1532 5.76577 10.1727 5.79861H10.3073C10.4436 5.79861 10.5544 5.90929 10.5544 6.04561V6.45143C10.5544 6.53522 10.5117 6.61278 10.4418 6.65848L10.2026 6.81398L10.1888 6.9159C10.1108 7.50568 9.77974 8.26977 9.30357 8.9604Z" fill="white"/>
<path d="M26.0588 26.7193C26.1522 26.5192 26.204 26.2958 26.204 26.0605V15.8927C26.204 15.1438 25.6753 14.4988 24.9415 14.352L22.1262 13.7888C21.9838 13.6261 21.8086 13.4949 21.6138 13.403C21.8353 13.1554 22.0231 12.9052 22.166 12.6982C22.5102 12.1987 22.7969 11.6608 22.9957 11.1418C23.0936 10.9229 23.1763 10.703 23.2444 10.4872C23.5109 10.2635 23.6683 9.92877 23.6683 9.578V8.71862C23.6683 8.47162 23.5912 8.23076 23.4486 8.03043V6.82066C23.4486 4.69812 21.7218 2.97156 19.5992 2.97156H18.3511C16.2288 2.97156 14.5019 4.69812 14.5019 6.82066V8.03082C14.3596 8.23105 14.2819 8.47201 14.2819 8.71881V9.5782C14.2819 9.92897 14.4388 10.2629 14.7061 10.4872C14.774 10.7025 14.857 10.923 14.9551 11.1422C15.1533 11.661 15.4401 12.1989 15.7846 12.6981C15.9278 12.9058 16.1157 13.1562 16.3382 13.4046C16.1439 13.4968 15.9701 13.6276 15.828 13.7896L13.0548 14.3514C12.3225 14.4996 11.7959 15.1433 11.7959 15.8913V26.0606C11.7959 26.296 11.848 26.5194 11.9406 26.7195V27.8341C11.9406 28.5929 12.5557 29.2086 13.315 29.2086C13.5918 29.2086 13.8498 29.126 14.0654 28.985V39.5122C14.0654 40.8749 15.1702 41.9795 16.533 41.9795C17.8951 41.9795 18.9998 40.875 18.9998 39.5122C18.9998 40.8749 20.1039 41.9795 21.4673 41.9795C22.8294 41.9795 23.9335 40.875 23.9335 39.5122V28.9847C24.1497 29.1258 24.4074 29.2084 24.6845 29.2084C25.4438 29.2084 26.0587 28.5927 26.0587 27.8339V26.7193H26.0588ZM18.2365 16.9284C18.2262 17.029 18.1552 17.1132 18.0573 17.1404C18.0354 17.1466 18.0134 17.1494 17.9913 17.1494C17.9149 17.1494 17.8413 17.1142 17.7944 17.0514L17.1008 16.1315C17.0686 16.0889 17.0512 16.0365 17.0512 15.9829L17.052 14.5088C17.0522 14.4222 17.0975 14.3421 17.1717 14.2972C17.2455 14.2526 17.3377 14.2503 17.4142 14.2905C17.6158 14.3975 17.8175 14.4691 18.0132 14.5037C18.1306 14.5248 18.2164 14.6273 18.2164 14.7467V15.3616C18.252 15.3759 18.2838 15.3975 18.3097 15.4261C18.3565 15.4782 18.3791 15.5473 18.3718 15.6166L18.2365 16.9284ZM20.8485 16.1315L20.1563 17.0506C20.1088 17.1134 20.0356 17.1492 19.9594 17.1492C19.9373 17.1492 19.9147 17.1459 19.8926 17.1402C19.795 17.1128 19.724 17.0286 19.7136 16.9276L19.5788 15.6166C19.5716 15.5473 19.5939 15.4782 19.6406 15.4261C19.6663 15.3975 19.6982 15.3759 19.734 15.3616V14.7467C19.734 14.6272 19.8199 14.5248 19.9375 14.5037C20.1325 14.4692 20.334 14.3976 20.5361 14.2907C20.6129 14.2506 20.7049 14.2529 20.7786 14.2975C20.8532 14.3421 20.898 14.4224 20.898 14.5091L20.8981 15.9832C20.898 16.0367 20.8807 16.089 20.8485 16.1315ZM21.0993 11.932C20.496 12.807 19.931 13.1987 19.6377 13.1987H18.3123C18.0194 13.1987 17.4538 12.8069 16.8506 11.932C16.3746 11.2413 16.0433 10.4774 15.9657 9.88756L15.9521 9.78544L15.7127 9.62994C15.6427 9.58434 15.6004 9.50678 15.6004 9.42298V9.01726C15.6004 8.88085 15.7109 8.77026 15.8473 8.77026H15.9477V8.33014C15.9477 8.23651 16.0007 8.15125 16.0842 8.10935C16.4241 7.94011 17.0984 7.6553 17.7964 7.6553C18.3528 7.6553 18.8146 7.84062 19.1685 8.20591C19.609 8.66172 20.1176 8.89264 20.6782 8.89264C20.9966 8.89264 21.3245 8.81771 21.6545 8.66961C21.7308 8.63531 21.8191 8.64213 21.8898 8.68763C21.9227 8.70897 21.9489 8.73713 21.9685 8.77016H22.1031C22.2394 8.77016 22.3501 8.88065 22.3501 9.01716V9.42298C22.3501 9.50678 22.3075 9.58434 22.2377 9.62994L21.9985 9.78544L21.9847 9.88746C21.9067 10.4771 21.5755 11.2413 21.0993 11.932Z" fill="white"/>
</svg>
