<svg width="54" height="54" viewBox="0 0 54 54" fill="none" xmlns="http://www.w3.org/2000/svg">
<path d="M52.4206 27.2919L27.6477 2.52008C26.6958 1.56833 25.4391 1.00924 24.1068 0.946066L5.66673 0.0066577C4.14493 -0.0689633 2.65888 0.50236 1.58057 1.58057C0.50236 2.66004 -0.0689633 4.14472 0.0066577 5.66673L0.946066 24.0944C1.00935 25.439 1.58057 26.6958 2.52008 27.6352L5.51433 30.6307L4.60087 30.4014C3.59829 34.5135 3.16692 38.1808 3.16692 41.3411C3.16692 45.0726 3.76313 48.0669 4.80421 50.2631C5.32459 51.3537 5.97164 52.2423 6.75855 52.9028C7.53321 53.5621 8.4973 53.9686 9.51233 53.9686C10.4765 53.9686 11.4159 53.6005 12.2538 52.9908C13.0792 52.3822 13.8401 51.5197 14.5254 50.4155C15.6669 48.575 16.3782 46.177 16.8356 43.4219C16.9112 43.0043 16.9743 42.5717 17.0253 42.1404L14.7288 39.8439C14.6396 40.9482 14.4995 42.0141 14.3348 43.0166C13.9159 45.5673 13.2304 47.6989 12.3802 49.0697C11.8102 49.9706 11.2513 50.5929 10.7566 50.9484C10.2485 51.3166 9.85574 51.4181 9.51233 51.4305C9.15669 51.4181 8.81455 51.3041 8.38339 50.9608C7.7489 50.4403 7.03751 49.3497 6.53052 47.7125C6.02237 46.0754 5.70513 43.9302 5.70513 41.3412C5.70513 38.663 6.03482 35.5039 6.84777 31.9631L14.7288 39.8439C14.8812 38.1176 14.9568 36.2908 14.9568 34.4243C14.9568 28.4099 14.2082 22 13.1932 17.609C12.0505 17.609 10.8956 17.1779 10.0205 16.3028C8.29417 14.5641 8.29417 11.7594 10.0205 10.0206C11.7593 8.28183 14.5763 8.28183 16.3016 10.0206C18.0403 11.7593 18.0403 14.5641 16.3016 16.3028C16.0858 16.5184 15.8577 16.7081 15.6174 16.8605C15.9719 18.2945 16.2643 19.9191 16.5307 21.6703C17.1145 25.5668 17.4949 30.0717 17.4949 34.4243C17.4949 37.1149 17.3549 39.7424 17.0253 42.1404L27.3056 52.4207C29.4112 54.5264 32.8256 54.5264 34.9324 52.4207L52.4206 34.92C54.5263 32.8132 54.5263 29.3989 52.4206 27.2919Z" fill="white"/>
<path d="M15.5022 16.3535C15.1093 14.7919 14.6904 13.4721 14.2083 12.4309L11.9106 13.5104C12.2786 14.2974 12.6729 15.502 13.0408 16.962C13.0917 17.1652 13.1425 17.3809 13.1932 17.6089C14.0435 17.6089 14.8937 17.3561 15.6174 16.8604C15.5914 16.6831 15.5406 16.5182 15.5022 16.3535Z" fill="white"/>
</svg>
