<svg width="56" height="59" viewBox="0 0 56 59" fill="none" xmlns="http://www.w3.org/2000/svg">
<path d="M25.6357 54.3677H12.665V59H25.6357V54.3677Z" fill="white"/>
<path d="M40.4594 54.3677H27.4888V59H40.4594V54.3677Z" fill="white"/>
<path d="M55.2829 54.3677H42.3123V59H55.2829V54.3677Z" fill="white"/>
<path d="M18.2241 47.8824H5.25342V52.5148H18.2241V47.8824Z" fill="white"/>
<path d="M33.0475 47.8824H20.0769V52.5148H33.0475V47.8824Z" fill="white"/>
<path d="M47.871 47.8824H34.9004V52.5148H47.871V47.8824Z" fill="white"/>
<path d="M55.2827 47.8824H49.7239V52.5148H55.2827V47.8824Z" fill="white"/>
<path d="M5.25342 42.1234V46.0294H10.8123V44.6823C8.75556 44.2488 6.87113 43.3529 5.25342 42.1234Z" fill="white"/>
<path d="M10.8123 54.3677H5.25342V59H10.8123V54.3677Z" fill="white"/>
<path d="M13.7073 44.9872C13.3553 44.9872 13.0106 44.9604 12.665 44.9344V46.0295H25.6357V41.3972H23.0406C20.5595 43.6216 17.2938 44.9872 13.7073 44.9872Z" fill="white"/>
<path d="M40.4594 41.3971H27.4888V46.0294H40.4594V41.3971Z" fill="white"/>
<path d="M55.2829 41.3971H42.3123V46.0294H55.2829V41.3971Z" fill="white"/>
<path d="M33.0473 39.5442V34.9119H27.1467C26.6473 36.6138 25.8311 38.1767 24.7693 39.5442H33.0473Z" fill="white"/>
<path d="M47.871 34.9119H34.9004V39.5442H47.871V34.9119Z" fill="white"/>
<path d="M55.2827 34.9119H49.7239V39.5442H55.2827V34.9119Z" fill="white"/>
<path d="M27.4888 28.5043C27.6324 29.3076 27.7204 30.1303 27.7204 30.9743C27.7204 31.684 27.65 32.377 27.5481 33.0589H40.4594V28.4264H27.4888V28.5043Z" fill="white"/>
<path d="M55.2829 28.4264H42.3123V33.0587H55.2829V28.4264Z" fill="white"/>
<path d="M6.2956 15.8227C5.55074 16.763 5.38119 18.35 5.40241 19.7139C5.4089 20.1123 5.42925 20.4922 5.45705 20.8285C5.49222 21.2444 5.53669 21.5965 5.57196 21.842L5.7202 21.8207C3.16773 24.0489 1.5474 27.3193 1.5474 30.9743C1.5474 35.4056 3.92567 39.2718 7.46754 41.3971C8.49405 42.0132 9.61696 42.4802 10.8121 42.7729C11.4144 42.9203 12.0314 43.0277 12.6651 43.0815C13.0097 43.1111 13.3553 43.1343 13.7074 43.1343C15.9921 43.1343 18.1211 42.4932 19.9472 41.3971C20.8162 40.8755 21.6213 40.2594 22.3318 39.5442C23.615 38.2527 24.5998 36.6712 25.203 34.9119C25.6264 33.675 25.8673 32.3547 25.8673 30.9743C25.8673 30.1702 25.7847 29.3854 25.6356 28.6248C25.6227 28.5582 25.6097 28.4923 25.5949 28.4266C24.4228 22.9344 19.5487 18.8144 13.7073 18.8144C13.4711 18.8144 13.2412 18.8366 13.0088 18.8496L13.0411 18.8227C12.7836 18.5124 12.539 18.2381 12.2963 17.9676C12.0293 17.6703 11.7736 17.4007 11.5235 17.1496C10.1143 15.7321 8.96181 15.0455 7.97135 15.0307L1.77906 0.561832C1.57705 0.0911587 1.03323 -0.125673 0.562556 0.0744943C0.0919801 0.275533 -0.126692 0.820324 0.0752187 1.291L6.2956 15.8227ZM9.35944 17.6608C9.5938 17.8545 9.85695 18.0915 10.1562 18.3908C10.3776 18.6113 10.6204 18.8698 10.8807 19.158C9.59758 19.4636 8.39687 19.9723 7.30739 20.6487C7.28055 20.2882 7.26931 19.9362 7.26844 19.5952C7.26757 19.2163 7.27774 18.8504 7.30739 18.5234C7.31669 18.4159 7.33238 18.3251 7.34537 18.225C7.39255 18.3009 7.44632 18.3667 7.51026 18.4251C7.67982 18.578 7.89578 18.6715 8.12549 18.6715C8.24689 18.6715 8.371 18.6474 8.48959 18.5965C8.83063 18.4511 9.03254 18.124 9.04465 17.7766C9.0493 17.644 9.03167 17.5097 8.97703 17.38L8.96772 17.3587C9.08709 17.4431 9.21769 17.5432 9.35944 17.6608Z" fill="white"/>
</svg>
