<svg width="44" height="48" viewBox="0 0 44 48" fill="none" xmlns="http://www.w3.org/2000/svg">
<path d="M28.7693 23.6227C28.7693 24.5568 29.5274 25.315 30.4616 25.315H33.8462C34.7804 25.315 35.5385 24.5568 35.5385 23.6227C35.5385 22.6885 34.7804 21.9304 33.8462 21.9304H30.4616C29.5274 21.9304 28.7693 22.6885 28.7693 23.6227Z" fill="white"/>
<path d="M5.0769 23.6227C5.0769 24.5568 5.83506 25.315 6.76922 25.315H10.1538C11.088 25.315 11.8462 24.5568 11.8462 23.6227C11.8462 22.6885 11.088 21.9304 10.1538 21.9304H6.76922C5.83506 21.9304 5.0769 22.6885 5.0769 23.6227Z" fill="white"/>
<path d="M13.5386 25.3149C13.5386 27.1477 14.9077 29.6709 16.077 31.0552V32.9303C16.077 35.264 17.9758 37.1611 20.3078 37.1611C22.6398 37.1611 24.5386 35.264 24.5386 32.9303V31.0552C25.708 29.6709 27.0771 27.1477 27.0771 25.3149C27.0771 21.5749 24.1037 18.6438 20.3078 18.6438C16.512 18.6438 13.5386 21.5749 13.5386 25.3149ZM21.154 32.9303C21.154 33.3957 20.7749 33.7765 20.3078 33.7765C19.8408 33.7765 19.4617 33.3957 19.4617 32.9303V32.0842H21.154V32.9303ZM20.3078 22.0284C22.2066 22.0284 23.6925 23.472 23.6925 25.3149C23.6925 26.046 22.8666 27.7468 22.1085 28.6995H18.5089C17.7491 27.7468 16.9232 26.046 16.9232 25.3149C16.9232 23.472 18.4091 22.0284 20.3078 22.0284Z" fill="white"/>
<path d="M22.0001 15.161V11.7764C22.0001 10.8422 21.242 10.084 20.3078 10.084C19.3736 10.084 18.6155 10.8422 18.6155 11.7764V15.161C18.6155 16.0951 19.3736 16.8533 20.3078 16.8533C21.242 16.8533 22.0001 16.0951 22.0001 15.161Z" fill="white"/>
<path d="M28.6846 13.9645L26.2917 16.3575C25.63 17.0192 25.63 18.0887 26.2917 18.7504C26.6217 19.0804 27.0549 19.2462 27.4881 19.2462C27.9214 19.2462 28.3546 19.0804 28.6846 18.7504L31.0776 16.3575C31.7392 15.6958 31.7392 14.6262 31.0776 13.9645C30.4159 13.3028 29.3446 13.3028 28.6846 13.9645Z" fill="white"/>
<path d="M11.9307 13.9645C11.269 13.3028 10.1995 13.3028 9.53778 13.9645C8.87608 14.6262 8.87608 15.6958 9.53778 16.3575L11.9307 18.7504C12.2607 19.0804 12.6939 19.2462 13.1272 19.2462C13.5604 19.2462 13.9936 19.0804 14.3236 18.7504C14.9853 18.0887 14.9853 17.0192 14.3236 16.3575L11.9307 13.9645Z" fill="white"/>
<path d="M40.6156 10.0841H42.3079C42.9036 10.0841 43.4553 9.771 43.7599 9.26162C44.0662 8.75054 44.0797 8.11761 43.7988 7.59299L40.1671 0.823734C39.5765 -0.274578 37.7742 -0.274578 37.1835 0.823734L33.5518 7.59299C33.2709 8.11761 33.2861 8.75054 33.5908 9.26162C33.8971 9.771 34.4488 10.0841 35.0445 10.0841H37.2309V27.0072C37.2309 36.3387 29.6392 43.9304 20.3078 43.9304C10.9764 43.9304 3.38463 36.3387 3.38463 27.0072V8.39177C3.38463 7.45761 2.62647 6.69945 1.69232 6.69945C0.758157 6.69945 0 7.45761 0 8.39177V27.0072C0 38.2053 9.10973 47.315 20.3078 47.315C31.5058 47.315 40.6156 38.2053 40.6156 27.0072V10.0841ZM38.6762 5.20175L39.48 6.69945H37.874L38.6762 5.20175Z" fill="white"/>
</svg>
