<svg width="37" height="47" viewBox="0 0 37 47" fill="none" xmlns="http://www.w3.org/2000/svg">
<path d="M0 0V47H15.8571V37.8611H21.1429V47H37V0H0ZM5.28571 5.22222H10.5714V10.4444H5.28571V5.22222ZM15.8571 5.22222H21.1429V10.4444H15.8571V5.22222ZM26.4286 5.22222H31.7143V10.4444H26.4286V5.22222ZM5.28571 15.6667H10.5714V20.8889H5.28571V15.6667ZM15.8571 15.6667H21.1429V20.8889H15.8571V15.6667ZM26.4286 15.6667H31.7143V20.8889H26.4286V15.6667ZM5.28571 26.1111H10.5714V31.3333H5.28571V26.1111ZM15.8571 26.1111H21.1429V31.3333H15.8571V26.1111ZM26.4286 26.1111H31.7143V31.3333H26.4286V26.1111ZM5.28571 36.5556H10.5714V41.7778H5.28571V36.5556ZM26.4286 36.5556H31.7143V41.7778H26.4286V36.5556Z" fill="white"/>
</svg>
