<svg xmlns="http://www.w3.org/2000/svg" viewBox="0 0 756.71 320.04"><defs><style>.cls-1{fill:#fff;}</style></defs><g id="Layer_2" data-name="Layer 2"><g id="Layer_1-2" data-name="Layer 1"><path class="cls-1" d="M118.72,319.51c-1.27.1-2.51.26-3.75.28-39.95.48-94.83.22-99.47-.51-.88-4.57.12-9.37-.62-14.32-4.86-.68-9.64.05-14.3-.48a7.39,7.39,0,0,1-.5-1.58C0,301.62,0,300.34,0,299.07q0-122.49,0-245A58.78,58.78,0,0,1,1.8,38.91C7.88,16,27.59,2.11,46.56.47,49,.27,51.34.08,53.74.07Q76.27,0,98.81.07c1.71,0,3.53-.43,5.23.78.61,4.48-.17,9.12.51,14,4.71.61,9.33,0,14.16.44a17.39,17.39,0,0,1,.6,2.62c.11,1.27,0,2.56,0,3.83q0,145.74,0,291.48C119.34,315.24,119.73,317.35,118.72,319.51ZM15,300.6c0-2.46.11-4.51.11-6.55V72.11c0-1.92,0-3.84,0-5.75a48.15,48.15,0,0,1,2.45-15.07A52.15,52.15,0,0,1,67.22,15.11c9.75,0,19.5,0,29.24,0,1.21,0,2.42-.27,3.77-.42.08-3.62.66-6.92-.4-10.24a22.37,22.37,0,0,0-2.48-.33c-2.71,0-5.43,0-8.15,0-12.46,0-24.93,0-37.39,0C31,4,12.07,18.09,6,38.42a58.79,58.79,0,0,0-2.09,17q0,119.35,0,238.72c0,1.44,0,2.88.05,4.31a13.59,13.59,0,0,0,.42,2C7.77,301.14,11.07,300.88,15,300.6Z"/><path class="cls-1" d="M135.39,143.94c-.67-5.19-1-104.87-.43-125.68,0-.93.15-1.85.26-3,1.28-.11,2.35-.28,3.42-.28,16.15,0,32.3.08,48.44,0a52,52,0,0,1,51.07,42.81,58,58,0,0,1,.78,10q.1,36,0,71.92c0,1.26-.16,2.52-.24,3.66-1.79,1.24-3.6.77-5.31.78-14.23,0-28.46,0-42.68,0q-24.94,0-49.88,0C139.12,144.11,137.38,144,135.39,143.94Zm24.6-4.51V134q0-23.73,0-47.48c0-6.07,0-12.14,0-18.22a21.06,21.06,0,0,1,.53-3.23c9.72,0,19.17-.4,28.56.1,13.48.72,24.12,12,24.74,25.45.08,1.76.06,3.52.06,5.28,0,13.11,0,26.21,0,39.32,0,1.53-.51,3.21.76,4.51,5.53.76,16.66.58,20.19-.38.06-1,.18-2.09.18-3.18,0-23.18.05-46.36-.05-69.54a50.81,50.81,0,0,0-1.08-10c-4.43-21.29-23.78-37.43-45.54-37.76-15.51-.23-31-.06-46.53,0a22.1,22.1,0,0,0-3,.43c0,2-.1,3.7-.1,5.43q0,22.07,0,44.12,0,32.85,0,65.7c0,1.71-.39,3.5.46,5.08C143.52,140.31,155.61,140.29,160,139.43Z"/><path class="cls-1" d="M681.28,87H714.5a58.68,58.68,0,0,1,17.93,2.81A34.37,34.37,0,0,1,742.66,95a25.26,25.26,0,0,1,10.51,18.6c1.35,14.14-6.07,23.28-15.91,28-6.9,3.31-14.28,4.51-21.85,4.72-3.83.1-7.66,0-11.16,0-1.48,1.26-1.16,2.62-1.17,3.85,0,7.51,0,15,0,22.54,0,1.55-.14,3.11-.21,4.58-4.08.8-16.89.84-21.44.09-.6-1.57-.36-3.34-.36-5.05q0-29,0-58c0-7.35,0-14.71,0-22.06C681.05,90.66,681.18,89.1,681.28,87Zm22.41,41.09c4.24,0,8.24.18,12.21-.06a19.77,19.77,0,0,0,10.38-3.31c5.86-4.1,5.88-12.2-.09-16.11a23.27,23.27,0,0,0-6.15-2.54c-4.52-1.3-9.2-.88-13.82-.89a21.38,21.38,0,0,0-2.64.33C702.85,110.1,702.9,123.85,703.69,128.11Z"/><path class="cls-1" d="M367.93,94.75c-3.21,4.72-6.77,9-10.28,13.59-1.32-.5-2.5-.86-3.61-1.38a33,33,0,0,0-16.32-2.88,17.27,17.27,0,0,0-6.42,1.73c-3.92,1.89-5.28,7.64-.46,10.36a39,39,0,0,0,4.71,2.34c3.55,1.41,7.19,2.62,10.73,4.08s6.77,2.83,10,4.52a39.11,39.11,0,0,1,6.36,4.24,23.43,23.43,0,0,1,8.94,19.76c-.32,12.24-6.2,20.85-17.47,25.69a39.54,39.54,0,0,1-15.41,3,49.4,49.4,0,0,1-21.83-4.58,38.3,38.3,0,0,1-13.42-10.47c2.22-2.8,10.13-9,14.69-11.61.8.64,1.69,1.31,2.53,2,6.95,5.8,15,6.59,23.5,5.1a11.43,11.43,0,0,0,4.74-2.12c3.88-2.92,3.74-7.77-.36-10.37a34.82,34.82,0,0,0-6.94-3.15c-3.15-1.14-6.39-2-9.59-3a48.35,48.35,0,0,1-12.52-5.86c-16.1-10.66-13.57-30.76-6-40.14A25.16,25.16,0,0,1,326,87.16,48.43,48.43,0,0,1,361.9,90,14.33,14.33,0,0,1,367.93,94.75Z"/><path class="cls-1" d="M554.85,177.89c-.1-2.2-.23-3.76-.23-5.33,0-9.1,0-18.21,0-27.32a22.32,22.32,0,0,0-1.11-8,13.7,13.7,0,0,0-4.37-6.17,10.24,10.24,0,0,0-14.53,1.71,15.64,15.64,0,0,0-3.31,8.35c-.24,2.38-.31,4.78-.32,7.18,0,8.14,0,16.29,0,24.44,0,1.56.38,3.21-.59,4.64-3.62.66-14.63.73-19.72.11-.86-1.51-.52-3.29-.53-5q0-21.09,0-42.17c0-4.16,0-8.31,0-12.47,0-1.41.11-2.83.17-4.19,3.36-.88,14.9-1,20.4-.25.17,2.09.35,4.27.57,6.92.72-.49,1.28-.69,1.56-1.09,5.12-7.33,12.29-9.16,20.66-7.78a28.39,28.39,0,0,1,4.2,1c10.59,3.36,16.19,10.85,17.71,21.62a38.47,38.47,0,0,1,.29,5.26q0,17.25,0,34.51c0,1.11-.14,2.21-.22,3.47-3.31,1.2-6.67.47-9.95.59S558.78,177.89,554.85,177.89Z"/><path class="cls-1" d="M501.28,149.9c-1.93.91-3.7.62-5.42.63-10.07,0-20.14,0-30.22,0-1.54,0-3.18-.44-4.89.8a12.2,12.2,0,0,0,3.91,7.28,11,11,0,0,0,6.83,3.16c5.5.49,10.5-.68,14.48-4.8a12,12,0,0,0,1.24-1.86,85,85,0,0,1,14.26,10.54,24,24,0,0,1-14.55,12.21,45.11,45.11,0,0,1-19,1.64,39.83,39.83,0,0,1-7-1.48c-11.61-3.66-19.15-11.34-21.81-23.28-2.11-9.45-1.44-18.76,3-27.57A27.37,27.37,0,0,1,459,112.58a34.17,34.17,0,0,1,25.22,1.79,27.54,27.54,0,0,1,10.63,8.75C500.8,131.14,502.07,140.24,501.28,149.9Zm-20-12c-.75-7.22-4.91-11.59-10.42-11.47s-9.91,5-10.33,11.54C467.37,138,474.17,138.07,481.3,137.87Z"/><path class="cls-1" d="M633.45,156.47,643.73,169c-2.84,4.25-6.89,6.44-11.32,7.83a30.05,30.05,0,0,1-19.31-.37c-9.12-3.2-14.28-9.9-16.38-19.08a45.25,45.25,0,0,1-.87-8.55c-.14-4.63,0-9.27-.05-13.9,0-1.24-.19-2.48-.31-4-5.24-.73-10.36.12-15.67-.59-.7-5.68-.27-11.18-.31-16.86,2.89-.92,5.6-.37,8.25-.5s5.06.18,7.79-.29c.67-7-.1-13.89.47-20.87,3.41-1.33,6.94-.55,10.37-.66a73.66,73.66,0,0,1,10.24.18c.3,7.22,0,14.06.2,21.11,3.32.94,6.5.4,9.62.5s6.37,0,9.45,0c1.1,3.28,1.29,9.42.58,17.08a18.56,18.56,0,0,1-3,.54c-4,.07-8,0-12,.05-1.39,0-2.78.21-4.32.33a20.72,20.72,0,0,0-.34,2.6c0,5.59,0,11.18,0,16.77a14.12,14.12,0,0,0,.53,3.77c1.69,5.88,7.76,8.15,13,4.88C631.21,158.38,632,157.6,633.45,156.47Z"/><path class="cls-1" d="M430.11,177.15c-4.4.79-15.73.81-20.38.11a20.34,20.34,0,0,1-.37-2.6c0-3.51,0-7,0-10.53q0-38.77,0-77.54c0-1.88.09-3.76.13-5.55,3.7-.81,12.85-1,20.08-.4a16.13,16.13,0,0,1,.62,2.53c.11,1.27,0,2.55,0,3.83q0,42.12,0,84.24C430.2,173.14,430.14,175,430.11,177.15Z"/><path class="cls-1" d="M400.89,177.63c-7.11.48-13.61.18-19.9.23-1.51-1.58-1-3.25-1-4.79,0-11.81,0-23.62,0-35.43v-24c3.48-1.2,6.83-.5,10.1-.62s6.68,0,9.85,0c1.47,1.56,1,3.24,1,4.76,0,12.77,0,25.54,0,38.31v21.61Z"/><path class="cls-1" d="M402.64,93.54c0,7.31-5.07,12.36-12.34,12.25-7.09-.1-11.94-5-12-12.14,0-7.29,5.07-12.36,12.33-12.25C397.72,81.5,402.62,86.47,402.64,93.54Z"/><path class="cls-1" d="M319.33,243.81a14.17,14.17,0,0,1-7.45-1.88,12.48,12.48,0,0,1-4.83-5.26,17.3,17.3,0,0,1-1.68-7.81,17.48,17.48,0,0,1,1.68-7.83,12.58,12.58,0,0,1,4.83-5.3,14.09,14.09,0,0,1,7.45-1.91,13.71,13.71,0,0,1,8.64,2.61,11.21,11.21,0,0,1,4.16,7.38H326a6.13,6.13,0,0,0-2.24-3.63,7.13,7.13,0,0,0-4.47-1.3,7.41,7.41,0,0,0-7.23,4.66,15,15,0,0,0,0,10.62,7.63,7.63,0,0,0,2.8,3.44,7.86,7.86,0,0,0,4.43,1.2,7.51,7.51,0,0,0,4.47-1.22,5.68,5.68,0,0,0,2.24-3.42h6.13a10.9,10.9,0,0,1-4.16,7.09A13.88,13.88,0,0,1,319.33,243.81Z"/><path class="cls-1" d="M362,243.81a14.23,14.23,0,0,1-7.4-1.9,13.58,13.58,0,0,1-5.05-5.28,17.5,17.5,0,0,1,0-15.62,13.58,13.58,0,0,1,5.05-5.28,14.23,14.23,0,0,1,7.4-1.91,14.62,14.62,0,0,1,7.52,1.91,13.23,13.23,0,0,1,5.05,5.28,17.84,17.84,0,0,1,0,15.62,13.23,13.23,0,0,1-5.05,5.28A14.62,14.62,0,0,1,362,243.81Zm0-5a8.51,8.51,0,0,0,4.62-1.22,8.1,8.1,0,0,0,3-3.46,14,14,0,0,0,0-10.62,8,8,0,0,0-3-3.42,8.59,8.59,0,0,0-4.62-1.2,8.34,8.34,0,0,0-4.5,1.2,8.09,8.09,0,0,0-3,3.42,13.59,13.59,0,0,0,0,10.62,7.92,7.92,0,0,0,7.5,4.68Z"/><path class="cls-1" d="M392.94,243.32v-29h5.59l13.34,20v-20h5.59v29h-5.59l-13.34-20v20Z"/><path class="cls-1" d="M445,243.81a14,14,0,0,1-5.61-1.07,8.88,8.88,0,0,1-3.87-3.15,9.12,9.12,0,0,1-1.49-5h5.92a4.81,4.81,0,0,0,.66,2.32,4.5,4.5,0,0,0,1.72,1.63,5.41,5.41,0,0,0,2.63.6,5.59,5.59,0,0,0,2.3-.43,3.67,3.67,0,0,0,1.53-1.22,3.11,3.11,0,0,0,.56-1.87,3.31,3.31,0,0,0-.62-2.07,5.2,5.2,0,0,0-1.67-1.41,15.67,15.67,0,0,0-2.45-1c-.92-.32-1.88-.65-2.88-1a12.72,12.72,0,0,1-5.26-3,6.83,6.83,0,0,1-1.78-4.93,7.58,7.58,0,0,1,4.72-7.33,12.48,12.48,0,0,1,5.1-1,12.17,12.17,0,0,1,5.15,1,8.45,8.45,0,0,1,3.53,2.92,8.15,8.15,0,0,1,1.38,4.47h-6a3.83,3.83,0,0,0-.56-1.8,4,4,0,0,0-1.43-1.37,4.37,4.37,0,0,0-2.16-.51,4.5,4.5,0,0,0-2,.33A3,3,0,0,0,441,220a3.11,3.11,0,0,0-.5,1.8,3,3,0,0,0,.5,1.74,4.27,4.27,0,0,0,1.41,1.22,13.26,13.26,0,0,0,2.15.95c.83.29,1.73.59,2.69.89a24.11,24.11,0,0,1,4,1.76,8.4,8.4,0,0,1,2.88,2.63,7.57,7.57,0,0,1,1.08,4.27,8,8,0,0,1-1.18,4.22,8.63,8.63,0,0,1-3.46,3.15A12,12,0,0,1,445,243.81Z"/><path class="cls-1" d="M478.27,243.32V218.84h-8.45v-4.52h22.49v4.52h-8.45v24.48Z"/><path class="cls-1" d="M508.09,243.32v-29H519a12.37,12.37,0,0,1,5.77,1.2,8,8,0,0,1,3.42,3.21,9,9,0,0,1,1.12,4.46,8.87,8.87,0,0,1-1.1,4.32,8.06,8.06,0,0,1-3.39,3.24,12.62,12.62,0,0,1-5.91,1.22h-5.17v11.35Zm5.6-15.41h4.88a5.08,5.08,0,0,0,3.77-1.24,4.52,4.52,0,0,0,1.2-3.28,4.33,4.33,0,0,0-1.18-3.21,5.21,5.21,0,0,0-3.79-1.18h-4.88Zm9.44,15.41-6-12.76h6.05l6.3,12.76Z"/><path class="cls-1" d="M557.26,243.81a12.89,12.89,0,0,1-5.8-1.28,9.78,9.78,0,0,1-4.14-3.85,12.65,12.65,0,0,1-1.53-6.55V214.32h5.59v17.85a8.21,8.21,0,0,0,.72,3.63,4.76,4.76,0,0,0,2.08,2.17,6.79,6.79,0,0,0,3.21.71,7,7,0,0,0,3.25-.71,4.65,4.65,0,0,0,2.05-2.17,8.36,8.36,0,0,0,.7-3.63V214.32H569v17.81a12.36,12.36,0,0,1-1.57,6.55,10,10,0,0,1-4.25,3.85A13.39,13.39,0,0,1,557.26,243.81Z"/><path class="cls-1" d="M599.18,243.81a14.17,14.17,0,0,1-7.45-1.88,12.48,12.48,0,0,1-4.83-5.26,17.3,17.3,0,0,1-1.68-7.81A17.48,17.48,0,0,1,586.9,221a12.58,12.58,0,0,1,4.83-5.3,14.09,14.09,0,0,1,7.45-1.91,13.71,13.71,0,0,1,8.64,2.61,11.21,11.21,0,0,1,4.16,7.38h-6.13a6.18,6.18,0,0,0-2.24-3.63,7.13,7.13,0,0,0-4.47-1.3,7.41,7.41,0,0,0-7.23,4.66,15,15,0,0,0,0,10.62,7.63,7.63,0,0,0,2.8,3.44,7.86,7.86,0,0,0,4.43,1.2,7.51,7.51,0,0,0,4.47-1.22,5.73,5.73,0,0,0,2.24-3.42H612a10.9,10.9,0,0,1-4.16,7.09A13.88,13.88,0,0,1,599.18,243.81Z"/><path class="cls-1" d="M635,243.32V218.84h-8.45v-4.52h22.49v4.52H640.6v24.48Z"/><path class="cls-1" d="M664.84,243.32v-29h5.59v29Z"/><path class="cls-1" d="M701.29,243.81a14.23,14.23,0,0,1-7.4-1.9,13.58,13.58,0,0,1-5-5.28,17.5,17.5,0,0,1,0-15.62,13.58,13.58,0,0,1,5-5.28,14.23,14.23,0,0,1,7.4-1.91,14.62,14.62,0,0,1,7.52,1.91,13.23,13.23,0,0,1,5.05,5.28,17.84,17.84,0,0,1,0,15.62,13.23,13.23,0,0,1-5.05,5.28A14.62,14.62,0,0,1,701.29,243.81Zm0-5a8.45,8.45,0,0,0,4.61-1.22,8.05,8.05,0,0,0,3-3.46,14,14,0,0,0,0-10.62,7.94,7.94,0,0,0-3-3.42,8.53,8.53,0,0,0-4.61-1.2,8.34,8.34,0,0,0-4.5,1.2,8.09,8.09,0,0,0-3,3.42,13.59,13.59,0,0,0,0,10.62,7.92,7.92,0,0,0,7.5,4.68Z"/><path class="cls-1" d="M732.19,243.32v-29h5.59l13.34,20v-20h5.59v29h-5.59l-13.34-20v20Z"/></g></g></svg>