<svg xmlns="http://www.w3.org/2000/svg" viewBox="0 0 239.1 319.76"><defs><style>.cls-1{fill:#6391b2;}</style></defs><g id="Layer_2" data-name="Layer 2"><g id="Layer_1-2" data-name="Layer 1"><path class="cls-1" d="M118.79,319.42c-5.91.54-99.71.41-103.42-.15-1-4.61.13-9.44-.73-14.14-2.55-.9-5-.42-7.31-.52s-4.43-.06-6.87-.08c-.17-1.18-.36-2.08-.42-3-.07-1.12,0-2.24,0-3.36q0-121.52,0-243C0,49,.21,43,2.16,37.14,9,16.66,23.15,4.49,44.32.5A41.5,41.5,0,0,1,52,0q24-.06,47.94,0c1.25,0,2.51.15,3.85.24,1.15,4.72,0,9.4.83,14.13,4.63,1.28,9.48-.13,14.3.89.13.9.32,1.65.35,2.41C119.83,32.94,119.43,314.94,118.79,319.42ZM99.91,4.26c-1.58-.08-2.82-.19-4.07-.19-14.7,0-29.4,0-44.1,0C31.22,4,11.52,18.17,5.76,39.41A57.43,57.43,0,0,0,4,54.58Q4,174.67,4,294.76c0,1-.06,1.93,0,2.88s.28,1.8.44,2.79c3.53.14,6.83.55,10.38-.3,0-2.2.08-4.25.08-6.31v-222c0-1.6,0-3.2,0-4.79.18-9.11,2.16-17.78,6.85-25.64C31.94,24.45,47,15.59,66.74,15c9.58-.3,19.18,0,28.76-.07,1.4,0,2.79-.17,4.42-.28A59.74,59.74,0,0,0,99.91,4.26Z"/><path class="cls-1" d="M135.2,144.11c-.8-5.44-1.13-100.9-.52-126.16,0-.93.17-1.84.28-3,1.47-.1,2.71-.27,3.95-.27,16.13,0,32.27-.12,48.4,0A52,52,0,0,1,239,66.32c.21,24.6,0,49.21,0,73.81,0,1.09-.14,2.19-.23,3.59a36.74,36.74,0,0,1-3.76.37c-8.95,0-17.89,0-26.84,0h-73Zm24.64-78.78a8,8,0,0,1,1.52-.52c8.79,0,17.59-.32,26.36,0,13.5.54,23.82,10,26,23.26a40.07,40.07,0,0,1,.32,6.21c0,13.58,0,27.16,0,40.75,0,1.53-.43,3.18.54,4.53,5.55.81,16.89.64,20.21-.33.07-1,.23-2.11.23-3.2,0-23,.06-46-.05-69a49.54,49.54,0,0,0-1.31-10.91c-5.1-22-24-37.1-46.83-37.38-14.7-.18-29.41,0-44.11,0-1.08,0-2.17.19-3.15.28-1.14,1.82-.75,3.62-.75,5.33q0,55.13,0,110.27a19,19,0,0,0,0,2.39c.1.9.34,1.79.5,2.58,4.6.71,16,.67,19.91-.06.74-1.58.45-3.35.45-5.07q0-31.87,0-63.76C159.72,68.93,159.8,67.2,159.84,65.33Z"/></g></g></svg>